<svg xmlns="http://www.w3.org/2000/svg" width="734" height="421" fill="none" viewBox="0 0 734 421"><path fill="#72B4ED" fill-rule="evenodd" d="M84.2428 178.756C82.781 175.496 77.8747 176.882 78.3344 180.425L78.6461 182.827C78.6735 183.038 78.6813 183.251 78.6696 183.463L77.9754 196.045C77.6931 201.16 82.7966 204.096 87.92 204.146C95.0073 204.216 100.776 207.187 104.765 207C111.146 206.7 113.639 200.711 112.194 194.488C111.696 192.343 111.32 190.037 111.217 187.729C111.152 186.266 111.361 184.087 111.755 181.472C113.14 172.286 101.376 166.004 95.2201 172.962L89.398 179.542C87.9041 181.23 85.1653 180.813 84.2428 178.756Z" clip-rule="evenodd"/><path stroke="#1A171B" stroke-width="3" d="M372.391 50.4537C373.668 40.7522 381.938 33.5 391.724 33.5H585.16C595.983 33.5 604.736 42.3141 604.66 53.1369L604.37 94.3693C604.295 105.085 595.587 113.732 584.871 113.732H440.988C435.946 113.732 431.051 115.426 427.086 118.541L412.272 130.182C403.753 136.875 391.166 132.404 388.779 121.836C387.688 117.008 384.63 112.854 380.343 110.379L376.901 108.391C370.071 104.447 366.29 96.7769 367.319 88.9576L372.391 50.4537Z"/><ellipse cx="293.888" cy="205" fill="#7C88D4" rx="13.693" ry="10.292"/><path fill="#E2918E" fill-rule="evenodd" d="M181.413 315.837C176.594 315.006 175.464 307.524 178.084 303.396C179.005 301.945 179.584 300.393 179.584 298.783C179.584 291.518 182.291 273.469 182.701 270.781C182.736 270.548 182.785 270.336 182.856 270.111C183.912 266.745 192.815 239.318 196.873 257.33C200.341 272.722 193.199 301.976 190.252 312.9C189.592 315.344 187.181 316.831 184.687 316.401L181.413 315.837Z" clip-rule="evenodd"/><path fill="#7CD4B0" fill-rule="evenodd" d="M401.132 245.624C400.725 247.337 398.369 247.236 398.162 245.487C396.829 234.231 395.2 214.714 399.243 210.273C405.007 203.943 413.252 202.264 421.568 216.605C427.787 227.329 429.761 246.388 430.362 255.32C430.519 257.657 428.226 259.314 426.029 258.503L423.927 257.728C422.783 257.306 421.568 258.152 421.568 259.372C421.568 260.928 419.69 261.712 418.583 260.617L412.556 254.65C412.004 254.104 411.085 254.226 410.695 254.897C410.214 255.725 409.001 255.672 408.595 254.805L404.148 245.314C403.503 243.938 401.484 244.146 401.132 245.624Z" clip-rule="evenodd"/><path fill="#7C88D4" fill-rule="evenodd" d="M396 61.3506C396 57.1296 399.734 53.8846 403.914 54.4734L411.37 55.5239C421.565 56.9601 431.88 55.7432 442.014 53.9288C443.414 53.6781 444.769 53.4779 446.004 53.3585C450.55 52.9189 459.216 53.0184 465.241 53.1611C468.903 53.2479 471.792 56.2543 471.792 59.9172C471.792 64.108 468.047 67.3131 463.894 66.7544C458.302 66.0021 451.246 65.1854 448.028 65.354C436.827 65.9409 425.879 69.6578 414.682 68.9987L402.537 68.2838C398.866 68.0677 396 65.0278 396 61.3506Z" clip-rule="evenodd"/><path fill="#7C88D4" fill-rule="evenodd" d="M396 83.0275C396 79.8968 398.619 77.403 401.746 77.5568L455.964 80.2237C461.027 80.4727 466.097 80.3202 471.141 79.8282C480.001 78.9642 494.817 77.6355 505.519 77.2742C518.112 76.8489 545.142 77.0832 556.643 77.2099C559.62 77.2426 562 79.666 562 82.6427C562 85.7661 559.394 88.2509 556.275 88.0896C544.867 87.4997 519.575 86.2712 509.953 86.4472C502.03 86.5921 489.916 87.9607 482.02 88.9561C476.792 89.6151 471.528 89.9456 466.259 89.8373L401.365 88.5036C398.384 88.4423 396 86.0086 396 83.0275Z" clip-rule="evenodd" opacity=".349"/><path fill="#E9C1C1" fill-rule="evenodd" d="M674.359 171.771C672.983 170.656 672.956 168.566 674.303 167.417C675.213 166.64 676.514 166.519 677.552 167.114L683.473 170.511C686.314 172.141 689.681 172.593 692.851 171.771L695.914 170.976C699.319 170.092 702.896 170.109 706.292 171.026L716.398 173.754C720.3 174.807 723.483 177.628 724.997 181.376L725.484 182.581C727.271 187.003 726.031 192.072 722.406 195.171C719.022 198.063 714.236 198.653 710.251 196.668L699.255 191.191C697.643 190.389 696.124 189.412 694.725 188.278L674.359 171.771Z" clip-rule="evenodd"/><path fill="#72B4ED" fill-rule="evenodd" d="M674.841 305.892C672.445 311.215 666.145 313.532 660.871 311.031C655.439 308.455 653.306 301.83 656.216 296.569L670.476 270.783L682.39 254.793C684.033 252.588 686.383 251.014 689.047 250.335L709.297 245.171C714.979 243.722 720.876 246.591 723.242 251.956L731.182 269.959C732.49 272.926 732.543 276.296 731.327 279.302L728.716 285.756C725.952 292.587 717.741 295.337 711.42 291.547L704.036 287.119C702.654 286.29 701.121 285.749 699.526 285.526L693.839 284.731C688.559 283.993 683.425 286.827 681.236 291.689L674.841 305.892Z" clip-rule="evenodd"/><path stroke="#1A171B" stroke-linecap="round" stroke-linejoin="round" stroke-width="2.5" d="M989.368 225.289V9.6372C989.368 5.21892 985.786 1.6372 981.368 1.6372H10C5.58173 1.6372 2 5.21892 2 9.6372L2 288.737C2 293.155 5.58172 296.737 10 296.737H90.6791C90.6791 296.737 90.2674 274.423 97.5536 230.785C97.5536 230.785 87.8774 270.511 84.5946 282.743C82.7166 289.74 83.6932 300.047 83.6932 300.047C83.6932 300.047 92.1848 303.378 91.8004 308.769H69.2175C69.2175 308.769 72.1505 301.944 70.3869 286.637C69.2478 276.748 70.5446 261.926 74.966 253.647C79.3873 245.367 77.2728 208.567 77.2728 208.567C77.2728 208.567 88.4131 204.955 95.6124 207.686C103.993 210.866 109.847 210.676 115.917 205.189C115.917 205.189 116.51 179.153 115.621 169.514C115.621 169.514 114.918 165.327 117.23 162.081C117.23 162.081 129.115 158.122 137.306 152.704C137.306 152.704 136.154 146.456 147.129 142.675C153.805 140.375 144.151 146.734 144.151 146.734C144.151 146.734 150.193 145.112 149.995 146.736C149.797 148.36 146.08 148.766 146.08 148.766C146.08 148.766 150.569 148.882 150.205 150.447C149.84 152.012 145.031 151.637 145.031 151.637C145.031 151.637 150.694 151.427 148.038 155.208C145.381 158.989 140.202 157.382 140.202 157.382C140.202 157.382 129.066 170.604 119.443 172.202C119.443 172.202 115.337 170.037 117.761 161.898C117.761 161.898 130.684 151.592 119.76 139.059C118.38 137.629 115.234 137.683 115.234 137.683C115.234 137.683 112.727 132.95 116.777 131.502C120.827 130.053 125.118 134.061 120.731 139.276L118.312 146.569C118.312 146.569 121.406 146.086 120.923 149.659C120.923 149.659 122.804 151.929 121.068 153.137C121.068 153.137 121.05 155.768 118.928 157.217L114.152 158.451C114.152 158.451 105.131 159.514 98.0723 167.407C95.3468 170.454 90.5839 173.698 88.4784 174.082C83.3948 175.007 82.1195 172.504 80.3479 168.492C77.8762 162.895 75.4949 152.367 75.4949 152.367C75.4949 152.367 81.1954 151.827 86.4334 155.531C88.9885 157.337 89.2835 161.24 89.2835 161.24L108.529 152.279C108.529 152.279 111.337 145.701 113.802 145.624L114.974 139.737C114.974 139.737 111.116 148.291 104.864 147.613C100.777 147.169 97.9996 134.966 97.9996 134.966C97.9996 134.966 105.887 141.708 110.619 138.337C115.351 134.966 119.032 114.849 113.669 110.846C108.305 106.843 97.7893 107.581 95.8965 114.532C94.0034 121.484 94.5292 126.435 94.5292 135.493C94.5292 135.493 76.3365 140.97 74.7594 146.658C73.1818 152.346 73.2868 164.037 78.9656 182.259C78.9656 182.259 74.2909 214.366 75.7056 214.956C80.2905 216.864 94.5138 214.631 94.5138 214.631L116.222 211.58C116.222 211.58 115.841 224.714 114.952 232.597C114.063 240.48 109.986 258.69 107.86 263.33C102.446 275.142 105.458 301.865 105.458 301.865H166.43C166.43 301.865 159.991 314.463 154.75 314.162C149.51 313.861 133.188 305.913 127.049 313.711C120.91 321.511 90.4334 388.693 77.6596 396.613C77.6596 396.613 83.9453 407.174 93.0694 403.927C93.0694 403.927 92.531 414.598 91.0554 418.91L45.73 416.683C45.73 416.683 47.4745 410.52 54.2015 409.615C60.9289 408.711 72.7269 400.146 72.7269 400.146C72.7269 400.146 76.0141 410.623 86.67 402.746C97.0108 395.102 111.314 379.851 114.694 376.512C119.765 371.497 128.769 361.235 129.474 343.924C130.405 321.096 140.623 325.561 147.708 324.319C154.792 323.077 165.774 313.142 165.774 313.142C165.774 313.142 171.265 318.995 183.663 318.819C183.663 318.819 177.287 333.367 152.667 334.609C128.047 335.851 133.184 363.881 135.663 359.091C138.143 354.301 123.619 332.481 143.811 322.721C164.003 312.964 172.682 310.836 174.099 298.064C175.515 285.29 176.401 248.212 190.748 245.374C205.095 242.536 201.934 236.501 201.934 236.501C201.934 236.501 200.249 234.976 197.594 234.442C194.936 233.91 188.698 205.053 198.541 193.573C211.336 178.649 224.676 185.132 231.826 193.215C246.295 209.574 229.006 221.071 239.102 227.813C249.196 234.553 246.718 242.18 240.696 253.89C234.673 265.598 262.552 265.377 241.025 281.888C241.025 281.888 243.592 275.738 238.279 272.9C232.965 270.06 226.171 270.92 229.182 262.582C232.193 254.244 215.655 260.605 212.357 257.486C209.06 254.367 216.204 247.578 213.181 245.376C209.058 242.372 192.873 244.842 197.655 251.76C202.437 258.68 202.842 272.672 201.152 285.432C199.92 294.727 194.468 310.304 189.686 316.867C184.903 323.431 203.385 329.184 210.957 320.498C213.812 317.223 189.33 316.335 189.686 321.835C190.039 327.335 174.099 335.851 164.711 339.045C155.324 342.237 154.261 345.253 150.896 351.107C147.53 356.961 140.623 370.621 140.623 370.621C140.623 370.621 191.244 374.513 191.696 369.454C191.913 367 187.323 360.972 182.093 358.713C171.778 354.261 151.788 355.412 149.654 361.721C145.449 374.159 145.709 375.144 167.014 375.411C192.693 375.731 198.919 379.851 204.048 362.86C210.339 342.026 218.733 289.194 238.216 285.822C257.698 282.452 435.457 281.105 435.457 281.105C435.457 281.105 432.108 269.989 432.912 255.925C435.301 214.09 420.729 198.758 403.513 201.095C385.798 203.501 388.625 251.264 403.786 266.314C403.786 266.314 402.879 249.919 405.006 254.581C407.134 259.242 413.228 271.375 413.228 271.375C413.228 271.375 407.111 254.327 412.963 259.92C418.812 265.515 425.063 270.975 425.063 270.975C425.063 270.975 420.674 258.19 424.532 263.383C428.388 268.579 435.171 271.774 435.171 271.774C435.171 271.774 428.256 277.102 419.611 271.375C410.969 265.648 400.601 252.421 395.38 271.559C395.38 271.559 394.975 262.6 393.188 256.291C391.399 249.982 364.032 281.489 382.909 270.701C391.077 266.031 372.602 240.215 366.732 245.361C361.092 250.301 365.64 253.72 363.738 256.519C359.902 262.165 354.57 251.258 351.202 257.891C349.044 262.143 346.518 267.845 340.832 266.761C337.25 266.079 337.477 263.844 335.483 261.046C333.488 258.249 326.615 261.684 326.615 257.155C326.615 252.627 330.444 250.151 325.914 248.444C318.603 245.689 322.899 239.194 324.23 234.133C325.559 229.07 321.404 221.087 315.485 218.476C311.553 216.74 318.555 214.96 316.067 210.48C311.153 201.63 313.806 206.1 321.519 199.04C329.233 191.981 329.766 203.326 335.218 200.396C340.672 197.466 344.55 203.19 344.55 207.985C344.55 212.78 348.311 214.184 353.366 217.515C358.419 220.845 347.912 226.573 352.169 227.771C356.425 228.97 361.298 229.377 359.702 236.305C358.107 243.231 365.051 243.646 365.849 236.586C366.647 229.525 358.158 226.375 360.705 218.622C363.252 210.868 346.668 213.832 349.668 208.518C353.625 201.508 346.2 194.291 339.153 196.156C332.104 198.02 333.354 196.642 330.163 194.645C326.973 192.647 315.933 196.243 313.141 201.038C313.141 201.038 310.078 189.706 294.089 189.998C280.145 190.252 269.324 200.806 274.841 207.619C284.19 219.164 298.577 222.884 298.577 222.884C298.577 222.884 297.442 228.469 301.618 237.023C304.005 241.917 293.688 250.22 293.688 250.22C293.688 250.22 304.044 253.18 309.763 247.186L309.646 258.619C309.646 258.619 322.228 243.335 320.247 232.136C318.267 220.934 305.371 209.83 301.154 218.427C296.472 227.971 294.705 237.925 291.382 240.454C288.057 242.985 279.211 246.785 276.8 239.948C275.173 235.34 273.258 229.494 272 214.707C272 214.707 281.754 231.711 283.195 242.756C284.635 253.803 279.29 255.635 279.29 255.635C279.29 255.635 268.479 260.452 262.443 265.485C256.405 270.521 252.424 282.948 252.424 282.948C252.424 282.948 302.85 276.837 339.288 278.168C375.726 279.501 435.97 277.769 435.97 277.769C435.97 277.769 442.22 247.799 458.046 240.741C473.869 233.68 475.998 234.614 489.829 234.479C489.829 234.479 488.763 224.336 488.585 221.719C488.412 219.105 497.192 205.394 494.446 192.726C489.869 171.592 465.458 178.249 452.296 180.76L455.082 189.36C455.082 189.36 448.939 227.686 463.057 227.886L465.831 239.896C465.831 239.896 486.637 233.947 499.272 244.87C511.907 255.793 509.111 282.432 509.111 282.432L532.923 280.14C532.923 280.14 533.435 253.058 525.031 240.468C520.585 233.803 514.023 232.132 514.023 232.132C514.023 232.132 518.679 224.342 520.747 215.925C524.938 198.883 521.167 177.656 492.572 182.195C492.572 182.195 503.908 189.115 512.728 190.073C521.552 191.031 532.499 187.305 539.73 192.947C546.956 198.59 560.35 214.665 554.716 230.21C554.716 230.21 554.292 236.066 566.407 242.345C566.407 242.345 559.925 242.665 562.05 245.22C564.176 247.775 571.614 267.471 568.425 278.33L563.538 275.987C563.538 275.987 563.005 255.441 557.799 240.642C557.799 240.642 541.807 232.219 531.604 239.352C521.4 246.484 540.087 226.019 549.758 234.43C549.758 234.43 553.867 227.654 550.994 216.156C548.125 204.658 542.905 195.413 542.905 195.413C542.905 195.413 553.662 190.474 560.31 195.366C566.088 199.618 577.003 223.096 565.841 227.567C554.683 232.037 558.756 234.361 566.619 234.361C574.487 234.361 577.676 236.598 571.401 244.9C565.132 253.204 576.507 245.752 580.014 249.267C583.521 252.779 576.566 260.525 584.004 260.951C591.444 261.378 598.142 252.682 589.109 252.69C580.077 252.698 588.477 247.226 585.712 245.459C579.167 241.279 576.999 242.578 579.337 235.445C581.675 228.311 571.614 230.848 572.677 223.608C573.743 216.37 570.283 191.977 582.67 191.457C600.638 190.702 609.857 202.283 608.475 211.259C605.825 228.481 616.169 222.596 614.673 229.931C612.71 239.572 617.751 238.284 620.569 241.107C623.388 243.931 617.22 249.909 620.912 253.513C624.605 257.114 617.559 266.32 613.962 263.984C610.364 261.647 608.104 256.58 605.353 263.992C603.7 268.444 596.493 264.714 595.01 261.33C593.53 257.949 596.077 255.124 601.327 254.151C606.573 253.178 647.88 246.949 648.078 252.496C648.271 258.045 644.674 277.32 644.674 277.32L495.198 290.305C495.198 290.305 472.003 288.324 465.17 308.494C458.338 328.664 444.251 356.745 444.251 356.745C444.251 356.745 399.619 341.193 401.001 334.148C402.388 327.104 405.699 325.288 416.762 324.256C427.825 323.226 427.46 312.526 429.502 304.159C431.545 295.791 450.886 243.68 453.143 263.834C455.402 283.987 436.981 288.205 436.855 302.292C436.729 316.377 450.143 312.428 443.195 322.518C436.245 332.608 433.613 338.563 421.221 334.965C408.834 331.37 404.542 323.384 393.862 332.744C383.183 342.109 312.335 343.078 301.219 360.115C295.963 368.17 293.433 379.39 293.433 379.39H431.695C431.695 379.39 432.541 362.524 405.561 362.004C378.577 361.488 373.494 363.464 371.891 372.994C370.288 382.528 370.337 388.477 370.337 388.477C370.337 388.477 441.935 390.955 444.392 388.455C446.844 385.954 454.343 358.721 454.343 358.721C454.343 358.721 456.618 367.286 475.38 361.739C494.142 356.19 512.375 351.837 512.375 351.837C512.375 351.837 495.686 356.225 494.057 378.255C492.426 400.28 481.177 385.082 484.184 374.264C487.191 363.448 495.433 353.749 533.38 347.241C571.326 340.732 592.578 338.387 592.578 338.387C592.578 338.387 609.03 346.086 620.436 345.668C631.841 345.245 661.41 339.561 661.743 336.51C662.083 333.458 636.124 336.51 619.192 337.641C604.79 338.602 604.184 340.014 598.201 336.284C591.865 332.331 577.856 336.963 569.618 339.108C562.723 340.906 579.915 325.083 579.915 325.083C579.915 325.083 590.074 318.875 595.494 320.57C600.91 322.267 604.07 324.978 604.07 324.978C604.07 324.978 618.519 323.702 634.876 320.558C634.876 320.558 669.336 242.048 681.824 238.967C694.313 235.884 717.844 232.802 717.844 232.802C717.844 232.802 715.855 221.381 719.654 212.136C719.654 212.136 727.947 201.973 730.757 187.366C734.201 169.453 700.229 156.156 687.62 169.169C687.62 169.169 670.06 157.203 666.439 162.098C662.818 166.993 677.299 181.496 697.21 195.093L718.566 208.328C718.566 208.328 712.777 213.403 714.949 218.48C717.119 223.557 714.406 228.27 714.406 228.27C714.406 228.27 697.935 227.908 687.799 235.16C687.799 235.16 688.299 230.061 687.355 227.755C687.355 227.755 678.075 230.04 675.008 225.149C671.942 220.26 670.352 196.833 677.846 185.233C677.846 185.233 673.531 185.916 670.579 193.762C667.628 201.609 670.009 238.567 670.009 238.567C670.009 238.567 658.942 213.192 666.297 202.214C671.827 193.961 654.596 198.13 650.439 211.819C646.283 225.511 648.933 244.425 652.392 246.646C655.848 248.867 661.497 245.732 661.497 245.732L660.02 255.172L661.838 258.583C661.838 258.583 642.131 280.888 633.964 306.16C633.964 306.16 648.585 323.293 667.758 330.739C667.758 330.739 690.046 290.875 694.416 291.951C698.79 293.025 687.193 306.506 687.193 306.506L734.629 298.971C734.629 298.971 742.49 265.098 725.694 241.124C725.694 241.124 744.15 262.527 748.001 286.773C748.001 286.773 764.032 286.848 766.794 282.132C769.557 277.417 771.383 240.466 749.784 237.381C749.784 237.381 763.137 226.365 759.313 207.618C755.32 188.066 734.216 190.802 734.216 190.802C734.216 190.802 749.491 207.185 761.068 202.309C773.745 196.969 782.774 199.928 788.115 214.697C794.058 231.137 780.794 246.253 780.794 246.253L793.768 254.262C793.768 254.262 802.659 261.271 802.946 269.886C803.234 278.499 804.055 285.848 804.055 285.848L789.01 283.981L742.002 297.906L807.067 290.297L787.025 354.313C787.025 354.313 667.002 391.899 566.455 388.228C566.455 388.228 566.765 371.351 575.786 369.933C588.023 368.008 615.777 364.239 627.485 377.159C634.935 385.378 638.715 400.015 638.715 400.015C638.715 400.015 820.898 327.62 813.802 343.641C807.645 357.538 692.439 402.908 759.939 387.892C817.757 375.033 812.856 391.974 812.856 391.974"/></svg>