<svg xmlns="http://www.w3.org/2000/svg" width="102" height="29" fill="none" viewBox="0 0 102 29"><path fill="#212329" fill-rule="evenodd" d="M25.9387 20.1824C24.0449 24.7477 19.141 28 13.39 28C12.9258 28 12.4672 27.9788 12.0152 27.9375L11.835 27.9174C11.3939 27.8642 11.056 27.5486 11.0066 27.1603L11.0004 27.0618L11 23.0131C10.9999 22.5397 11.4279 22.1559 11.9559 22.1558C12.0097 22.1558 12.0633 22.1599 12.1163 22.1679C12.6297 22.2462 13.0542 22.2854 13.39 22.2854C16.3038 22.2854 17.8593 21.9103 19.2936 19.8445L19.4333 19.6356C19.6864 19.2424 20.1542 19.0002 20.6605 19.0002L25.0221 19C25.5622 19 26 19.3925 26 19.8767C26 19.9811 25.9792 20.0846 25.9387 20.1824ZM13.3634 1C18.9948 1 23.8126 4.59435 25.7798 9.68102L25.899 10.0022L25.9593 10.1928C26.1027 10.6564 25.8548 11.1523 25.4055 11.3004C25.3495 11.3188 25.2918 11.3312 25.2335 11.3374L25.1456 11.3421L20.6416 11.3422C20.1159 11.3421 19.6311 11.0496 19.3733 10.5768L19.2847 10.4191L19.2444 10.3513C17.8102 7.98847 16.2646 7.41717 13.3634 7.41717C9.04536 7.41717 6.5152 9.8978 6.26417 14.2884L6.25348 14.5378L6.24989 14.7892L6.24991 24.3713C6.24991 24.7185 4.97714 25 4.64065 25C4.49296 25 4.3503 24.9446 4.23916 24.8443L3.98241 24.6086L3.95571 24.5824C1.51294 22.0837 0 18.6188 0 14.7892C0 7.17362 5.98298 1 13.3634 1Z" clip-rule="evenodd"/><g clip-path="url(#clip0)"><path fill="#212329" d="M39.14 22.7C39.16 22.9 39.17 23.1367 39.17 23.41C39.17 23.6833 39.16 23.92 39.14 24.12C39.1 24.51 38.9867 24.8533 38.8 25.15C38.6133 25.4467 38.3617 25.6783 38.045 25.845C37.7317 26.0083 37.3683 26.09 36.955 26.09C36.685 26.09 36.42 26.0583 36.16 25.995C35.9 25.9317 35.67 25.85 35.47 25.75V27.485C35.47 27.585 35.445 27.6617 35.395 27.715C35.345 27.7683 35.2733 27.795 35.18 27.795C35.0867 27.795 35.015 27.7683 34.965 27.715C34.915 27.6617 34.89 27.585 34.89 27.485V21.57C34.89 21.49 34.9 21.4283 34.92 21.385C34.9433 21.3417 34.98 21.3033 35.03 21.27C35.24 21.14 35.5233 21.0183 35.88 20.905C36.24 20.7883 36.5983 20.73 36.955 20.73C37.3683 20.73 37.7333 20.8133 38.05 20.98C38.3667 21.1433 38.6167 21.3733 38.8 21.67C38.9867 21.9667 39.1 22.31 39.14 22.7ZM38.56 24.095C38.58 23.8883 38.59 23.66 38.59 23.41C38.59 23.1567 38.58 22.9283 38.56 22.725C38.52 22.2883 38.36 21.9433 38.08 21.69C37.8 21.4367 37.425 21.31 36.955 21.31C36.6983 21.31 36.425 21.3483 36.135 21.425C35.8483 21.4983 35.6267 21.59 35.47 21.7V25.12C35.6267 25.23 35.8483 25.3233 36.135 25.4C36.425 25.4733 36.6983 25.51 36.955 25.51C37.425 25.51 37.7983 25.3833 38.075 25.13C38.355 24.8767 38.5167 24.5317 38.56 24.095ZM42.2301 26.09C41.8467 26.09 41.5101 26.0233 41.2201 25.89C40.9301 25.7533 40.7051 25.5617 40.5451 25.315C40.3884 25.065 40.3101 24.7733 40.3101 24.44C40.3101 24.1467 40.3851 23.8783 40.5351 23.635C40.6884 23.3883 40.9134 23.1933 41.2101 23.05C41.5067 22.9033 41.8634 22.83 42.2801 22.83C42.5334 22.83 42.7734 22.8483 43.0001 22.885C43.2267 22.9183 43.4867 22.9767 43.7801 23.06V22.56C43.7801 22.1267 43.6684 21.81 43.4451 21.61C43.2251 21.41 42.8834 21.31 42.4201 21.31C42.2034 21.31 41.9834 21.3367 41.7601 21.39C41.5401 21.4433 41.3534 21.5033 41.2001 21.57C41.1001 21.6167 41.0184 21.64 40.9551 21.64C40.8817 21.64 40.8184 21.6117 40.7651 21.555C40.7117 21.4983 40.6851 21.4317 40.6851 21.355C40.6851 21.2817 40.7067 21.2233 40.7501 21.18C40.7934 21.1367 40.8634 21.0917 40.9601 21.045C41.1401 20.9617 41.3684 20.8883 41.6451 20.825C41.9251 20.7617 42.2051 20.73 42.4851 20.73C43.0784 20.73 43.5384 20.88 43.8651 21.18C44.1951 21.48 44.3601 21.93 44.3601 22.53V25.27C44.3601 25.34 44.3501 25.3933 44.3301 25.43C44.3134 25.4667 44.2801 25.5033 44.2301 25.54C44.1234 25.62 43.9734 25.7017 43.7801 25.785C43.5867 25.8683 43.3551 25.94 43.0851 26C42.8184 26.06 42.5334 26.09 42.2301 26.09ZM42.3201 25.51C42.5634 25.51 42.8151 25.475 43.0751 25.405C43.3351 25.335 43.5701 25.2433 43.7801 25.13V23.64C43.4867 23.5533 43.2284 23.4917 43.0051 23.455C42.7851 23.4183 42.5567 23.4 42.3201 23.4C41.8501 23.4 41.4934 23.4967 41.2501 23.69C41.0101 23.88 40.8901 24.1333 40.8901 24.45C40.8901 24.7867 41.0134 25.0483 41.2601 25.235C41.5101 25.4183 41.8634 25.51 42.3201 25.51ZM46.4469 22.725C46.4269 22.9283 46.4169 23.1567 46.4169 23.41C46.4169 23.66 46.4269 23.8883 46.4469 24.095C46.4869 24.5283 46.6452 24.8733 46.9219 25.13C47.1985 25.3833 47.5735 25.51 48.0469 25.51C48.3635 25.51 48.6485 25.425 48.9019 25.255C49.1585 25.0817 49.3435 24.8483 49.4569 24.555C49.5135 24.3983 49.6102 24.32 49.7469 24.32C49.8269 24.32 49.8919 24.3467 49.9419 24.4C49.9952 24.45 50.0219 24.515 50.0219 24.595C50.0219 24.6817 49.9885 24.8017 49.9219 24.955C49.7719 25.2983 49.5302 25.5733 49.1969 25.78C48.8635 25.9867 48.4802 26.09 48.0469 26.09C47.6335 26.09 47.2685 26.0083 46.9519 25.845C46.6385 25.6783 46.3885 25.4467 46.2019 25.15C46.0185 24.8533 45.9069 24.51 45.8669 24.12C45.8469 23.92 45.8369 23.6833 45.8369 23.41C45.8369 23.1367 45.8469 22.9 45.8669 22.7C45.9035 22.31 46.0152 21.9667 46.2019 21.67C46.3885 21.3733 46.6385 21.1433 46.9519 20.98C47.2685 20.8133 47.6335 20.73 48.0469 20.73C48.4802 20.73 48.8635 20.835 49.1969 21.045C49.5335 21.2517 49.7752 21.525 49.9219 21.865C49.9885 22.0183 50.0219 22.1383 50.0219 22.225C50.0219 22.305 49.9952 22.3717 49.9419 22.425C49.8919 22.475 49.8269 22.5 49.7469 22.5C49.6702 22.5 49.6102 22.48 49.5669 22.44C49.5235 22.3967 49.4869 22.3383 49.4569 22.265C49.3435 21.9683 49.1585 21.735 48.9019 21.565C48.6485 21.395 48.3635 21.31 48.0469 21.31C47.5802 21.31 47.2069 21.4383 46.9269 21.695C46.6469 21.9483 46.4869 22.2917 46.4469 22.725ZM51.8375 22.725C51.8175 22.9283 51.8075 23.1567 51.8075 23.41C51.8075 23.66 51.8175 23.8883 51.8375 24.095C51.8775 24.5283 52.0358 24.8733 52.3125 25.13C52.5892 25.3833 52.9642 25.51 53.4375 25.51C53.7542 25.51 54.0392 25.425 54.2925 25.255C54.5492 25.0817 54.7342 24.8483 54.8475 24.555C54.9042 24.3983 55.0008 24.32 55.1375 24.32C55.2175 24.32 55.2825 24.3467 55.3325 24.4C55.3858 24.45 55.4125 24.515 55.4125 24.595C55.4125 24.6817 55.3792 24.8017 55.3125 24.955C55.1625 25.2983 54.9208 25.5733 54.5875 25.78C54.2542 25.9867 53.8708 26.09 53.4375 26.09C53.0242 26.09 52.6592 26.0083 52.3425 25.845C52.0292 25.6783 51.7792 25.4467 51.5925 25.15C51.4092 24.8533 51.2975 24.51 51.2575 24.12C51.2375 23.92 51.2275 23.6833 51.2275 23.41C51.2275 23.1367 51.2375 22.9 51.2575 22.7C51.2942 22.31 51.4058 21.9667 51.5925 21.67C51.7792 21.3733 52.0292 21.1433 52.3425 20.98C52.6592 20.8133 53.0242 20.73 53.4375 20.73C53.8708 20.73 54.2542 20.835 54.5875 21.045C54.9242 21.2517 55.1658 21.525 55.3125 21.865C55.3792 22.0183 55.4125 22.1383 55.4125 22.225C55.4125 22.305 55.3858 22.3717 55.3325 22.425C55.2825 22.475 55.2175 22.5 55.1375 22.5C55.0608 22.5 55.0008 22.48 54.9575 22.44C54.9142 22.3967 54.8775 22.3383 54.8475 22.265C54.7342 21.9683 54.5492 21.735 54.2925 21.565C54.0392 21.395 53.7542 21.31 53.4375 21.31C52.9708 21.31 52.5975 21.4383 52.3175 21.695C52.0375 21.9483 51.8775 22.2917 51.8375 22.725ZM60.6881 25.52C60.7281 25.5633 60.7581 25.605 60.7781 25.645C60.7981 25.685 60.8081 25.73 60.8081 25.78C60.8081 25.8533 60.7831 25.9167 60.7331 25.97C60.6831 26.02 60.6165 26.045 60.5331 26.045C60.4331 26.045 60.3481 26.0067 60.2781 25.93L58.2331 23.87C58.1431 23.78 58.0781 23.7217 58.0381 23.695C58.0015 23.665 57.9581 23.6467 57.9081 23.64C57.8615 23.6333 57.7731 23.63 57.6431 23.63H57.4431V25.69C57.4431 25.79 57.4181 25.8667 57.3681 25.92C57.3181 25.9733 57.2465 26 57.1531 26C57.0598 26 56.9881 25.9733 56.9381 25.92C56.8881 25.8667 56.8631 25.79 56.8631 25.69V21.085C56.8631 20.985 56.8881 20.9083 56.9381 20.855C56.9881 20.8017 57.0598 20.775 57.1531 20.775C57.2465 20.775 57.3181 20.8017 57.3681 20.855C57.4181 20.9083 57.4431 20.985 57.4431 21.085V23.055H57.6531C57.7531 23.055 57.8248 23.05 57.8681 23.04C57.9115 23.03 57.9515 23.0117 57.9881 22.985C58.0248 22.955 58.0948 22.89 58.1981 22.79L60.2181 20.88C60.2915 20.81 60.3715 20.775 60.4581 20.775C60.5448 20.775 60.6131 20.8017 60.6631 20.855C60.7131 20.9083 60.7381 20.9733 60.7381 21.05C60.7381 21.1467 60.6948 21.235 60.6081 21.315L58.4881 23.305L60.6881 25.52ZM63.441 26.09C63.0577 26.09 62.721 26.0233 62.431 25.89C62.141 25.7533 61.916 25.5617 61.756 25.315C61.5993 25.065 61.521 24.7733 61.521 24.44C61.521 24.1467 61.596 23.8783 61.746 23.635C61.8993 23.3883 62.1243 23.1933 62.421 23.05C62.7177 22.9033 63.0743 22.83 63.491 22.83C63.7443 22.83 63.9843 22.8483 64.211 22.885C64.4377 22.9183 64.6977 22.9767 64.991 23.06V22.56C64.991 22.1267 64.8793 21.81 64.656 21.61C64.436 21.41 64.0943 21.31 63.631 21.31C63.4143 21.31 63.1943 21.3367 62.971 21.39C62.751 21.4433 62.5643 21.5033 62.411 21.57C62.311 21.6167 62.2293 21.64 62.166 21.64C62.0927 21.64 62.0293 21.6117 61.976 21.555C61.9227 21.4983 61.896 21.4317 61.896 21.355C61.896 21.2817 61.9177 21.2233 61.961 21.18C62.0043 21.1367 62.0743 21.0917 62.171 21.045C62.351 20.9617 62.5793 20.8883 62.856 20.825C63.136 20.7617 63.416 20.73 63.696 20.73C64.2893 20.73 64.7493 20.88 65.076 21.18C65.406 21.48 65.571 21.93 65.571 22.53V25.27C65.571 25.34 65.561 25.3933 65.541 25.43C65.5243 25.4667 65.491 25.5033 65.441 25.54C65.3343 25.62 65.1843 25.7017 64.991 25.785C64.7977 25.8683 64.566 25.94 64.296 26C64.0293 26.06 63.7443 26.09 63.441 26.09ZM63.531 25.51C63.7743 25.51 64.026 25.475 64.286 25.405C64.546 25.335 64.781 25.2433 64.991 25.13V23.64C64.6977 23.5533 64.4393 23.4917 64.216 23.455C63.996 23.4183 63.7677 23.4 63.531 23.4C63.061 23.4 62.7043 23.4967 62.461 23.69C62.221 23.88 62.101 24.1333 62.101 24.45C62.101 24.7867 62.2243 25.0483 62.471 25.235C62.721 25.4183 63.0743 25.51 63.531 25.51ZM73.5242 25.515C73.6009 25.605 73.6392 25.6933 73.6392 25.78C73.6392 25.85 73.6109 25.9117 73.5542 25.965C73.5009 26.0183 73.4376 26.045 73.3642 26.045C73.2776 26.045 73.1926 26 73.1092 25.91L71.2792 23.875C71.2026 23.7883 71.1442 23.7317 71.1042 23.705C71.0642 23.675 71.0176 23.6567 70.9642 23.65C70.9142 23.64 70.8226 23.635 70.6892 23.635H70.4992V25.735C70.4992 25.835 70.4742 25.9117 70.4242 25.965C70.3742 26.0183 70.3026 26.045 70.2092 26.045C70.1159 26.045 70.0442 26.0183 69.9942 25.965C69.9442 25.9117 69.9192 25.835 69.9192 25.735V23.635H69.7192C69.5859 23.635 69.4926 23.64 69.4392 23.65C69.3859 23.6567 69.3392 23.675 69.2992 23.705C69.2626 23.7317 69.2059 23.7883 69.1292 23.875L67.2992 25.91C67.2159 26 67.1309 26.045 67.0442 26.045C66.9709 26.045 66.9059 26.0183 66.8492 25.965C66.7959 25.9117 66.7692 25.85 66.7692 25.78C66.7692 25.6933 66.8076 25.605 66.8842 25.515L68.8692 23.335L67.0092 21.395C66.9392 21.3217 66.8876 21.26 66.8542 21.21C66.8209 21.16 66.8042 21.1033 66.8042 21.04C66.8042 20.9733 66.8292 20.9133 66.8792 20.86C66.9326 20.8033 66.9992 20.775 67.0792 20.775C67.1426 20.775 67.1976 20.7917 67.2442 20.825C67.2909 20.855 67.3459 20.9033 67.4092 20.97L69.1192 22.825C69.2026 22.915 69.2642 22.975 69.3042 23.005C69.3442 23.035 69.3892 23.055 69.4392 23.065C69.4892 23.0717 69.5759 23.075 69.6992 23.075H69.9192V21.085C69.9192 20.985 69.9442 20.9083 69.9942 20.855C70.0442 20.8017 70.1159 20.775 70.2092 20.775C70.3026 20.775 70.3742 20.8017 70.4242 20.855C70.4742 20.9083 70.4992 20.985 70.4992 21.085V23.075H70.7092C70.8359 23.075 70.9242 23.0717 70.9742 23.065C71.0242 23.055 71.0676 23.035 71.1042 23.005C71.1442 22.975 71.2059 22.915 71.2892 22.825L72.9992 20.97C73.0626 20.9033 73.1176 20.855 73.1642 20.825C73.2109 20.7917 73.2659 20.775 73.3292 20.775C73.4092 20.775 73.4742 20.8033 73.5242 20.86C73.5776 20.9133 73.6042 20.9733 73.6042 21.04C73.6042 21.1033 73.5876 21.16 73.5542 21.21C73.5209 21.26 73.4692 21.3217 73.3992 21.395L71.5392 23.335L73.5242 25.515ZM75.3829 27.815C75.3062 27.815 75.2379 27.7883 75.1779 27.735C75.1212 27.685 75.0929 27.6167 75.0929 27.53C75.0929 27.4067 75.1729 27.305 75.3329 27.225C75.5629 27.1117 75.7712 26.9317 75.9579 26.685C76.1479 26.4383 76.3262 26.1067 76.4929 25.69L74.5379 21.31C74.4879 21.1967 74.4629 21.11 74.4629 21.05C74.4629 20.9667 74.4912 20.9 74.5479 20.85C74.6046 20.8 74.6729 20.775 74.7529 20.775C74.8262 20.775 74.8862 20.795 74.9329 20.835C74.9796 20.875 75.0229 20.94 75.0629 21.03L76.7629 24.905C76.7729 24.9317 76.7862 24.945 76.8029 24.945C76.8129 24.945 76.8196 24.9417 76.8229 24.935C76.8296 24.9283 76.8362 24.9183 76.8429 24.905L78.4129 21.005C78.4796 20.8517 78.5762 20.775 78.7029 20.775C78.7862 20.775 78.8562 20.8 78.9129 20.85C78.9729 20.9 79.0029 20.965 79.0029 21.045C79.0029 21.1017 78.9829 21.1817 78.9429 21.285L77.0529 25.87C76.8762 26.2933 76.6662 26.6733 76.4229 27.01C76.1796 27.3467 75.9379 27.5833 75.6979 27.72C75.6379 27.7533 75.5846 27.7767 75.5379 27.79C75.4946 27.8067 75.4429 27.815 75.3829 27.815Z"/><path fill="#212329" d="M38.422 14.114C37.754 14.114 37.142 13.964 36.586 13.664C36.034 13.364 35.59 12.956 35.254 12.44C34.918 11.92 34.724 11.346 34.672 10.718C34.644 10.334 34.63 10.01 34.63 9.746C34.63 9.474 34.644 9.15 34.672 8.774C34.724 8.146 34.918 7.574 35.254 7.058C35.59 6.538 36.034 6.128 36.586 5.828C37.142 5.528 37.754 5.378 38.422 5.378C38.87 5.378 39.298 5.448 39.706 5.588C40.114 5.724 40.476 5.924 40.792 6.188C41.108 6.448 41.352 6.76 41.524 7.124C41.616 7.328 41.662 7.528 41.662 7.724C41.662 7.952 41.588 8.136 41.44 8.276C41.292 8.416 41.104 8.486 40.876 8.486C40.7 8.486 40.55 8.446 40.426 8.366C40.302 8.282 40.192 8.162 40.096 8.006C39.936 7.706 39.712 7.46 39.424 7.268C39.14 7.076 38.788 6.98 38.368 6.98C37.996 6.98 37.662 7.066 37.366 7.238C37.074 7.406 36.84 7.642 36.664 7.946C36.488 8.25 36.386 8.596 36.358 8.984C36.342 9.204 36.334 9.458 36.334 9.746C36.334 10.034 36.342 10.29 36.358 10.514C36.386 10.902 36.488 11.248 36.664 11.552C36.84 11.856 37.074 12.094 37.366 12.266C37.662 12.434 37.996 12.518 38.368 12.518C38.768 12.518 39.114 12.422 39.406 12.23C39.698 12.038 39.922 11.796 40.078 11.504C40.178 11.336 40.29 11.208 40.414 11.12C40.538 11.028 40.688 10.982 40.864 10.982C41.096 10.982 41.286 11.054 41.434 11.198C41.582 11.338 41.656 11.52 41.656 11.744C41.656 11.94 41.61 12.14 41.518 12.344C41.358 12.7 41.12 13.012 40.804 13.28C40.488 13.544 40.122 13.75 39.706 13.898C39.294 14.042 38.866 14.114 38.422 14.114ZM45.0728 14.114C44.5328 14.114 44.0708 14.022 43.6868 13.838C43.3068 13.65 43.0188 13.398 42.8228 13.082C42.6268 12.762 42.5288 12.408 42.5288 12.02C42.5288 11.676 42.6188 11.358 42.7988 11.066C42.9828 10.77 43.2568 10.534 43.6208 10.358C43.9888 10.178 44.4368 10.088 44.9648 10.088C45.4208 10.088 45.8928 10.152 46.3808 10.28V9.818C46.3808 9.514 46.2848 9.286 46.0928 9.134C45.9008 8.982 45.5828 8.906 45.1388 8.906C44.9668 8.906 44.7948 8.922 44.6228 8.954C44.4548 8.986 44.3028 9.028 44.1668 9.08C44.1388 9.088 44.0808 9.108 43.9928 9.14C43.9088 9.168 43.8328 9.19 43.7648 9.206C43.7008 9.218 43.6408 9.224 43.5848 9.224C43.3928 9.224 43.2328 9.16 43.1048 9.032C42.9768 8.904 42.9108 8.742 42.9068 8.546C42.9068 8.19 43.1048 7.936 43.5008 7.784C44.0648 7.56 44.6488 7.448 45.2528 7.448C47.0488 7.448 47.9468 8.26 47.9468 9.884V12.884C47.9468 13.024 47.9248 13.138 47.8808 13.226C47.8368 13.31 47.7628 13.386 47.6588 13.454C47.4108 13.622 47.0568 13.774 46.5968 13.91C46.1408 14.046 45.6328 14.114 45.0728 14.114ZM45.1868 12.812C45.3988 12.812 45.6088 12.788 45.8168 12.74C46.0288 12.692 46.2168 12.626 46.3808 12.542V11.372C45.9688 11.248 45.5688 11.186 45.1808 11.186C44.8288 11.186 44.5568 11.264 44.3648 11.42C44.1728 11.576 44.0768 11.776 44.0768 12.02C44.0768 12.268 44.1788 12.462 44.3828 12.602C44.5868 12.742 44.8548 12.812 45.1868 12.812ZM55.5122 12.506C55.7522 12.506 55.9422 12.582 56.0822 12.734C56.2262 12.882 56.2982 13.088 56.2982 13.352V14.552C56.2982 14.812 56.2262 15.016 56.0822 15.164C55.9422 15.316 55.7522 15.392 55.5122 15.392C55.2722 15.392 55.0822 15.316 54.9422 15.164C54.8022 15.016 54.7322 14.812 54.7322 14.552V14H54.5042H54.4922H54.4862H50.4602V14.552C50.4602 14.812 50.3882 15.016 50.2442 15.164C50.1042 15.316 49.9142 15.392 49.6742 15.392C49.4342 15.392 49.2442 15.316 49.1042 15.164C48.9642 15.016 48.8942 14.812 48.8942 14.552V13.352C48.8942 13.108 48.9542 12.912 49.0742 12.764C49.1982 12.616 49.3682 12.532 49.5842 12.512V12.506C49.8562 12.506 50.0482 12.292 50.1602 11.864C50.2722 11.432 50.3282 10.804 50.3282 9.98V8.756C50.3282 8.44 50.3622 8.198 50.4302 8.03C50.5022 7.858 50.6222 7.738 50.7902 7.67C50.9582 7.598 51.2002 7.562 51.5162 7.562H54.1442C54.4602 7.562 54.7022 7.598 54.8702 7.67C55.0382 7.738 55.1562 7.858 55.2242 8.03C55.2962 8.198 55.3322 8.44 55.3322 8.756V12.506H55.4882H55.5122ZM51.7802 10.028C51.7802 10.62 51.7462 11.118 51.6782 11.522C51.6102 11.922 51.4962 12.25 51.3362 12.506H53.7002V9.056H51.7802V10.028ZM62.2155 7.508C62.5395 7.508 62.7995 7.614 62.9955 7.826C63.1915 8.038 63.2895 8.324 63.2895 8.684V13.214C63.2895 13.474 63.2175 13.68 63.0735 13.832C62.9295 13.984 62.7355 14.06 62.4915 14.06C62.2475 14.06 62.0535 13.984 61.9095 13.832C61.7655 13.68 61.6935 13.474 61.6935 13.214V11.018C61.6935 10.718 61.6975 10.46 61.7055 10.244C61.7135 10.028 61.7335 9.79 61.7655 9.53L61.7295 9.518L59.5995 13.178C59.4155 13.51 59.2355 13.74 59.0595 13.868C58.8875 13.996 58.6895 14.06 58.4655 14.06C58.1335 14.06 57.8755 13.956 57.6915 13.748C57.5075 13.536 57.4155 13.248 57.4155 12.884V8.354C57.4155 8.09 57.4875 7.884 57.6315 7.736C57.7755 7.584 57.9695 7.508 58.2135 7.508C58.4575 7.508 58.6495 7.584 58.7895 7.736C58.9335 7.884 59.0055 8.09 59.0055 8.354V10.064C59.0055 10.936 58.9855 11.574 58.9455 11.978L58.9755 11.996L61.0095 8.462C61.2015 8.11 61.3895 7.864 61.5735 7.724C61.7615 7.58 61.9755 7.508 62.2155 7.508ZM66.3438 10.178C66.3278 10.354 66.3198 10.554 66.3198 10.778C66.3198 11.002 66.3278 11.204 66.3438 11.384C66.3758 11.736 66.5038 12.018 66.7278 12.23C66.9518 12.438 67.2478 12.542 67.6158 12.542C67.8878 12.542 68.1158 12.486 68.2998 12.374C68.4878 12.258 68.6358 12.104 68.7438 11.912C68.8318 11.784 68.9318 11.682 69.0438 11.606C69.1598 11.53 69.3018 11.492 69.4698 11.492C69.7018 11.492 69.8878 11.562 70.0278 11.702C70.1718 11.838 70.2438 12.02 70.2438 12.248C70.2438 12.456 70.1698 12.682 70.0218 12.926C69.8058 13.274 69.4918 13.56 69.0798 13.784C68.6678 14.004 68.1718 14.114 67.5918 14.114C67.0598 14.114 66.5838 14.01 66.1638 13.802C65.7478 13.594 65.4138 13.304 65.1618 12.932C64.9138 12.56 64.7678 12.134 64.7238 11.654C64.6998 11.43 64.6878 11.152 64.6878 10.82C64.6878 10.456 64.6998 10.152 64.7238 9.908C64.7678 9.428 64.9138 9.002 65.1618 8.63C65.4138 8.258 65.7478 7.968 66.1638 7.76C66.5838 7.552 67.0598 7.448 67.5918 7.448C68.1718 7.448 68.6678 7.56 69.0798 7.784C69.4918 8.004 69.8038 8.288 70.0158 8.636C70.1678 8.876 70.2438 9.102 70.2438 9.314C70.2438 9.542 70.1718 9.726 70.0278 9.866C69.8878 10.002 69.7018 10.07 69.4698 10.07C69.3018 10.07 69.1618 10.032 69.0498 9.956C68.9378 9.88 68.8358 9.778 68.7438 9.65C68.6358 9.458 68.4878 9.306 68.2998 9.194C68.1158 9.078 67.8878 9.02 67.6158 9.02C67.2478 9.02 66.9518 9.126 66.7278 9.338C66.5038 9.546 66.3758 9.826 66.3438 10.178ZM74.7171 9.674C75.3771 9.674 75.8991 9.858 76.2831 10.226C76.6671 10.59 76.8591 11.128 76.8591 11.84C76.8591 12.288 76.7691 12.676 76.5891 13.004C76.4131 13.328 76.1631 13.576 75.8391 13.748C75.5191 13.916 75.1451 14 74.7171 14H72.7071C72.3911 14 72.1491 13.966 71.9811 13.898C71.8131 13.83 71.6931 13.714 71.6211 13.55C71.5491 13.382 71.5131 13.142 71.5131 12.83V8.372C71.5131 8.104 71.5871 7.894 71.7351 7.742C71.8831 7.586 72.0811 7.508 72.3291 7.508C72.5811 7.508 72.7811 7.586 72.9291 7.742C73.0771 7.894 73.1511 8.104 73.1511 8.372V9.674H74.7171ZM74.5431 12.698C74.7951 12.698 74.9911 12.624 75.1311 12.476C75.2711 12.324 75.3411 12.112 75.3411 11.84C75.3411 11.52 75.2731 11.292 75.1371 11.156C75.0051 11.016 74.8071 10.946 74.5431 10.946H73.0671V12.698H74.5431Z"/></g><defs><clipPath id="clip0"><rect width="68" height="29" fill="#fff" transform="translate(34)"/></clipPath></defs></svg>