<svg xmlns="http://www.w3.org/2000/svg" width="18" height="19" fill="none" viewBox="0 0 18 19"><path fill="#212329" fill-opacity=".2" fill-rule="evenodd" d="M17.6738 0.293219C17.2837 -0.0977403 16.6513 -0.097741 16.2612 0.293219L9.00376 7.56687L1.73907 0.294015C1.34876 -0.0967285 0.715951 -0.0967279 0.325646 0.294016L0.292728 0.32697C-0.0975766 0.717714 -0.0975771 1.35123 0.292728 1.74198L7.55822 9.01564L0.327421 16.2626C-0.0626674 16.6535 -0.062667 17.2874 0.327421 17.6784L0.360321 17.7113C0.750409 18.1023 1.38287 18.1023 1.77296 17.7114L9.00456 10.4636L16.2354 17.7025C16.6257 18.0933 17.2585 18.0933 17.6488 17.7025L17.6817 17.6696C18.072 17.2788 18.072 16.6453 17.6817 16.2546L10.4501 9.01483L17.7067 1.74198C18.0968 1.35102 18.0968 0.717152 17.7067 0.326192L17.6738 0.293219Z" clip-rule="evenodd"/></svg>