<svg xmlns="http://www.w3.org/2000/svg" width="36" height="36" fill="none" viewBox="0 0 36 36"><path fill="#212329" fill-rule="evenodd" d="M36 18C36 27.9411 27.9411 36 18 36C8.05887 36 0 27.9411 0 18C0 8.05887 8.05887 0 18 0C27.9411 0 36 8.05887 36 18ZM34 18C34 26.8366 26.8366 34 18 34C9.16344 34 2 26.8366 2 18C2 9.16344 9.16344 2 18 2C26.8366 2 34 9.16344 34 18Z" clip-rule="evenodd"/><path fill="#212329" d="M18 20C20.7614 20 23 17.7614 23 15C23 12.2386 20.7614 10 18 10C15.2386 10 13 12.2386 13 15C13 17.7614 15.2386 20 18 20Z"/><path fill="#212329" d="M18 33C20.7047 33 23.2421 32.2842 25.4332 31.0317C25.47 30.8936 25.4997 30.7523 25.5218 30.6082L26.2911 25.6082C26.6639 23.1852 24.7891 21 22.3376 21H13.6625C11.2109 21 9.33622 23.1852 9.70899 25.6082L10.4782 30.6082C10.5004 30.7523 10.5301 30.8936 10.5668 31.0317C12.758 32.2842 15.2954 33 18 33Z"/><path fill="#212329" d="M14.4317 34C13.2078 34 12.0974 33.4464 11.3586 32.5608C13.3816 33.485 15.6306 34 18 34H14.4317Z"/><path fill="#212329" d="M18 34C20.3694 34 22.6185 33.485 24.6415 32.5608C23.9027 33.4464 22.7923 34 21.5684 34H18Z"/></svg>